<svg id="Слой_1" data-name="Слой 1" xmlns="http://www.w3.org/2000/svg" viewBox="0 0 60.71 8.52"><title>logo</title><path d="M274.6,336.93h-0.06q-0.52.47-.83,0.73t-0.5.38a1,1,0,0,1-.27.14l-0.12,0a1.21,1.21,0,0,1-.77-0.25,2.06,2.06,0,0,1-.54-0.65,4.07,4.07,0,0,1-.35-0.91,8.63,8.63,0,0,1-.21-1q-0.07-.5-0.1-0.95t0-.75v-0.25a3.28,3.28,0,0,1,0-.46,1.56,1.56,0,0,1,.13-0.45,0.35,0.35,0,0,1,.3-0.2q0.08,0,.12.22t0.06,0.57q0,0.35.06,0.81t0.08,0.94q0,0.48.12,0.94a5.08,5.08,0,0,0,.2.81,1.8,1.8,0,0,0,.3.57,0.55,0.55,0,0,0,.44.22,0.77,0.77,0,0,0,.4-0.12,1.89,1.89,0,0,0,.36-0.28,3.45,3.45,0,0,0,.3-0.34l0.24-.29a1.46,1.46,0,0,0,.1-0.37,3.9,3.9,0,0,0,0-.43q0-.22,0-0.42t0-.34a0.5,0.5,0,0,1,.14-0.23,0.16,0.16,0,0,1,.15,0,0.31,0.31,0,0,1,.14.12,1.1,1.1,0,0,1,.13.26,5.2,5.2,0,0,0,.21.83,3.78,3.78,0,0,0,.4.85,2.41,2.41,0,0,0,.62.66,1.4,1.4,0,0,0,.84.26,1.49,1.49,0,0,0,.53-0.11,1.66,1.66,0,0,0,.85-0.73,1,1,0,0,0,.14-0.53,2.72,2.72,0,0,0-.14-0.87q-0.14-.42-0.32-0.84t-0.32-.83a2.64,2.64,0,0,1-.14-0.85q0.15-.33.33-0.28a0.73,0.73,0,0,1,.36.35,4,4,0,0,1,.35.76q0.16,0.46.29,0.94a8.21,8.21,0,0,1,.19.89,3.22,3.22,0,0,1,.05.62,2,2,0,0,1-.19.84,2.47,2.47,0,0,1-.51.71,2.53,2.53,0,0,1-.74.5,2.07,2.07,0,0,1-.86.19,1.27,1.27,0,0,1-.69-0.21,3.6,3.6,0,0,1-.6-0.47l-0.46-.47A0.54,0.54,0,0,0,274.6,336.93Z" transform="translate(-270.83 -329.84)" fill="#fff"/><path d="M279.37,335.15a3.73,3.73,0,0,1,.18-1.17,3,3,0,0,1,.53-1,2.59,2.59,0,0,1,.84-0.67,2.52,2.52,0,0,1,1.15-.25,1.78,1.78,0,0,1,.67.21,1.53,1.53,0,0,1,.47.4,1.56,1.56,0,0,1,.26.56,2.91,2.91,0,0,1,.07.66,1.27,1.27,0,0,1-.25.76,2.12,2.12,0,0,1-.62.57,3.25,3.25,0,0,1-.81.35,3,3,0,0,1-.81.12h-0.29a0.7,0.7,0,0,1-.26,0,0.43,0.43,0,0,1-.19-0.14,0.47,0.47,0,0,1-.07-0.28,0.25,0.25,0,0,1,0-.1,0.13,0.13,0,0,1,.1-0.06,1,1,0,0,1,.25,0l0.45,0.07a1.55,1.55,0,0,0,.47-0.11,4.49,4.49,0,0,0,.63-0.29,2.52,2.52,0,0,0,.56-0.4,0.65,0.65,0,0,0,.23-0.45,1.46,1.46,0,0,0-.08-0.46,1.19,1.19,0,0,0-.59-0.69,0.83,0.83,0,0,0-.46-0.08,1.82,1.82,0,0,0-.74.22,1.89,1.89,0,0,0-.57.49,2.33,2.33,0,0,0-.36.66,2.26,2.26,0,0,0-.13.76q0,0.3,0,.61a2.79,2.79,0,0,0,.09.6,2,2,0,0,0,.25.56,1.55,1.55,0,0,0,.49.47,3,3,0,0,0,.81.34,5.75,5.75,0,0,0,1.22.17l2.1-.14a1.5,1.5,0,0,1-.47.42,3,3,0,0,1-.61.26,4.29,4.29,0,0,1-.64.15,4.09,4.09,0,0,1-.6,0,3.63,3.63,0,0,1-1.28-.22,3.33,3.33,0,0,1-1.05-.63,2.9,2.9,0,0,1-.72-1A3.12,3.12,0,0,1,279.37,335.15Z" transform="translate(-270.83 -329.84)" fill="#fff"/><path d="M285.56,336.31a1.46,1.46,0,0,1,.12-0.46,1.74,1.74,0,0,1,.33-0.5,2.25,2.25,0,0,1,.56-0.44,2.49,2.49,0,0,1,.8-0.28,3.62,3.62,0,0,1,1.05,0,5.5,5.5,0,0,1,1.32.35v-0.22a1.27,1.27,0,0,0-.18-0.62,2.24,2.24,0,0,0-.45-0.57,2.59,2.59,0,0,0-.59-0.41,1.36,1.36,0,0,0-.61-0.16,0.55,0.55,0,0,0-.21,0l-0.17.09-0.16.09a0.38,0.38,0,0,1-.18,0h0l0,0-0.06-.06,0,0a0.8,0.8,0,0,1,.08-0.36,0.65,0.65,0,0,1,.21-0.25,1.1,1.1,0,0,1,.3-0.15,1.2,1.2,0,0,1,.36-0.05,2.28,2.28,0,0,1,.9.29,3.51,3.51,0,0,1,.79.6,4,4,0,0,1,.63.84,6.21,6.21,0,0,1,.45,1,4.59,4.59,0,0,1,.24,1,4,4,0,0,1,0,1h-0.2l-0.12,0h-0.06a3.41,3.41,0,0,0-.55-0.89,3.06,3.06,0,0,0-.6-0.53,2.18,2.18,0,0,0-.56-0.27l-0.42-.11-0.42,0a4,4,0,0,0-.5.08,4,4,0,0,0-.52.16,2.2,2.2,0,0,0-.47.24,1.16,1.16,0,0,0-.33.33,0.82,0.82,0,0,0-.12.45,0.6,0.6,0,0,0,.22.47,1.82,1.82,0,0,0,.54.32,2.91,2.91,0,0,0,.64.17,3.91,3.91,0,0,0,.53,0,5.83,5.83,0,0,0,.64,0l0.63-.08,0.62-.08a5.31,5.31,0,0,1,.61,0H291a0.14,0.14,0,0,1,.11.11,0.85,0.85,0,0,1,0,.14,0.23,0.23,0,0,1-.15.15,2.45,2.45,0,0,1-.38.16L290,338l-0.55.15-0.49.1-0.32,0a7.09,7.09,0,0,1-1-.08,3.56,3.56,0,0,1-1-.3,2,2,0,0,1-.76-0.6A1.58,1.58,0,0,1,285.56,336.31Z" transform="translate(-270.83 -329.84)" fill="#fff"/><path d="M293,334.25h-0.33a3,3,0,0,1-.49,0,1.78,1.78,0,0,1-.46-0.13,0.29,0.29,0,0,1-.21-0.27,0.74,0.74,0,0,1,0-.13,0.1,0.1,0,0,1,.11-0.09l1.21-.11q0-.43.07-0.71a3.87,3.87,0,0,0,0-.52q0-.24,0-0.5t0-.69a0.21,0.21,0,0,1,0-.13,0.22,0.22,0,0,1,.09-0.07l0.12,0h0.1a0.28,0.28,0,0,1,.15,0,0.55,0.55,0,0,1,.13.12,0.66,0.66,0,0,1,.09.15,0.35,0.35,0,0,1,0,.15l0.09,2.19,1,0a0.58,0.58,0,0,1,.37.08,0.41,0.41,0,0,1,.18.37,0.56,0.56,0,0,1-.34.18,2.41,2.41,0,0,1-.42,0H294.1a0.72,0.72,0,0,0-.37.11s0,0.18,0,.39,0,0.46,0,.75,0,0.6,0,.93,0,0.63,0,.91,0,0.51,0,.71,0,0.3,0,.33a0.3,0.3,0,0,1-.43,0,1.46,1.46,0,0,1-.26-0.57,5.2,5.2,0,0,1-.14-0.89q0-.51,0-1t0-.92Q293,334.44,293,334.25Z" transform="translate(-270.83 -329.84)" fill="#fff"/><path d="M299.19,338.07l0-.63q0-.33,0-0.66t0-.64q0-.32,0-0.57a2.4,2.4,0,0,0-.11-0.71,1.8,1.8,0,0,0-.31-0.59,1.42,1.42,0,0,0-.5-0.4,1.59,1.59,0,0,0-.71-0.15l-0.28,0-0.23.08-0.26.13-0.33.22s0,0,0,.09v0.08a5.89,5.89,0,0,0,.05.69l0.11,0.89,0.12,0.9a5.49,5.49,0,0,1,.06.7v0.09s0,0.1,0,.15,0,0.11,0,.15V338a0.36,0.36,0,0,1-.17.21,0.63,0.63,0,0,1-.24,0q-0.14,0-.21-0.2a3.13,3.13,0,0,1-.11-0.64q0-.42-0.06-1T296,335.09q-0.05-.71-0.15-1.52t-0.29-1.65q-0.09-.33-0.15-0.56l-0.1-.41q0-.18-0.08-0.37l-0.08-.46v0a0.11,0.11,0,0,1,.06-0.09l0.13-.08,0.15-.05,0.12,0q0.22,0.59.36,1t0.22,0.7q0.08,0.29.12,0.49t0.06,0.39q0,0.19,0,.39t0,0.48a2.5,2.5,0,0,1,1.11-.41,1.76,1.76,0,0,1,.88.15,1.83,1.83,0,0,1,.67.56,3.54,3.54,0,0,1,.47.84,5.35,5.35,0,0,1,.29,1,8.08,8.08,0,0,1,.13,1,4.92,4.92,0,0,1,0,.91,2.62,2.62,0,0,1-.16.67,0.44,0.44,0,0,1-.28.29A0.42,0.42,0,0,1,299.19,338.07Z" transform="translate(-270.83 -329.84)" fill="#fff"/><path d="M300.7,335.15a3.73,3.73,0,0,1,.18-1.17,3,3,0,0,1,.53-1,2.59,2.59,0,0,1,.84-0.67,2.52,2.52,0,0,1,1.15-.25,1.78,1.78,0,0,1,.67.21,1.53,1.53,0,0,1,.47.4,1.56,1.56,0,0,1,.26.56,2.91,2.91,0,0,1,.07.66,1.27,1.27,0,0,1-.25.76,2.12,2.12,0,0,1-.62.57,3.25,3.25,0,0,1-.81.35,3,3,0,0,1-.81.12h-0.29a0.7,0.7,0,0,1-.26,0,0.43,0.43,0,0,1-.19-0.14,0.47,0.47,0,0,1-.07-0.28,0.25,0.25,0,0,1,0-.1,0.13,0.13,0,0,1,.1-0.06,1,1,0,0,1,.25,0l0.45,0.07a1.55,1.55,0,0,0,.47-0.11,4.49,4.49,0,0,0,.63-0.29,2.52,2.52,0,0,0,.56-0.4,0.65,0.65,0,0,0,.23-0.45,1.46,1.46,0,0,0-.08-0.46,1.19,1.19,0,0,0-.59-0.69,0.83,0.83,0,0,0-.46-0.08,1.82,1.82,0,0,0-.74.22,1.89,1.89,0,0,0-.57.49,2.33,2.33,0,0,0-.36.66,2.26,2.26,0,0,0-.13.76q0,0.3,0,.61a2.79,2.79,0,0,0,.09.6,2,2,0,0,0,.25.56,1.55,1.55,0,0,0,.49.47,3,3,0,0,0,.81.34,5.75,5.75,0,0,0,1.22.17l2.1-.14a1.5,1.5,0,0,1-.47.42,3,3,0,0,1-.61.26,4.29,4.29,0,0,1-.64.15,4.09,4.09,0,0,1-.6,0,3.63,3.63,0,0,1-1.28-.22,3.33,3.33,0,0,1-1.05-.63,2.9,2.9,0,0,1-.72-1A3.12,3.12,0,0,1,300.7,335.15Z" transform="translate(-270.83 -329.84)" fill="#fff"/><path d="M308,338.29a6.37,6.37,0,0,1-.45-1,11.25,11.25,0,0,1-.32-1.11q-0.13-.56-0.21-1.1t-0.1-1a1.57,1.57,0,0,0,0-.18,1.19,1.19,0,0,1,0-.21,0.82,0.82,0,0,1,0-.2,0.4,0.4,0,0,1,.1-0.16h0.11l0.12,0,0.12,0.06,0.43-.17,0.45-.19a4,4,0,0,1,.46-0.15,1.88,1.88,0,0,1,.46-0.06h0.29l0.25,0,0.26,0.07,0.33,0.1,0.17,0.13,0.14,0.15a0.6,0.6,0,0,1,.1.2,1.09,1.09,0,0,1,0,.3,1.35,1.35,0,0,1-.44,0l-0.53-.13-0.57-.14a2.35,2.35,0,0,0-.56,0,1.19,1.19,0,0,0-.94.57,2.46,2.46,0,0,0-.07.67,3.44,3.44,0,0,0,.08.64,5.32,5.32,0,0,0,.18.62q0.11,0.31.21,0.62t0.18,0.62a3.33,3.33,0,0,1,.11.62,0.38,0.38,0,0,1-.13.25A0.4,0.4,0,0,1,308,338.29Z" transform="translate(-270.83 -329.84)" fill="#fff"/><path d="M311.17,337.57q0-.55,0-1.1t0.09-1.1q0.05-.54.09-1.08t0-1.09a2.62,2.62,0,0,0-.06-0.59,2.56,2.56,0,0,1-.06-0.57V332l0.09,0,0.13,0,0.14,0,0.08,0h0.12q0.09,0.42.25,1t0.38,1.2a11.28,11.28,0,0,0,.53,1.21,5.58,5.58,0,0,0,.7,1.08,3.4,3.4,0,0,0,.89.76,2.06,2.06,0,0,0,1.1.28,1.55,1.55,0,0,0,.64-0.12,1.2,1.2,0,0,0,.45-0.34,1.47,1.47,0,0,0,.26-0.51,2.24,2.24,0,0,0,.09-0.64,2,2,0,0,0-.18-0.85q-0.18-.39-0.39-0.76t-0.39-.73a1.73,1.73,0,0,1-.18-0.79,0.76,0.76,0,0,1,0-.26,0.19,0.19,0,0,1,.2-0.09,0.54,0.54,0,0,1,.38.21,2.64,2.64,0,0,1,.37.54,6.13,6.13,0,0,1,.33.73q0.15,0.4.27,0.8t0.18,0.74a3.06,3.06,0,0,1,.06.54,2.49,2.49,0,0,1-.16.92,2.2,2.2,0,0,1-.46.73,2.06,2.06,0,0,1-.71.48,2.41,2.41,0,0,1-.92.17,2.26,2.26,0,0,1-1-.21,3,3,0,0,1-.79-0.54,4.92,4.92,0,0,1-.61-0.71,8.35,8.35,0,0,1-.45-0.71q-0.19-.33-0.32-0.54a0.38,0.38,0,0,0-.22-0.21,0.25,0.25,0,0,0-.22.11,0.69,0.69,0,0,0-.1.25,1.46,1.46,0,0,0,0,.3v0.24a3.27,3.27,0,0,0,.07.7,3.21,3.21,0,0,1,.07.69,1.62,1.62,0,0,1,0,.21,1.53,1.53,0,0,1-.06.26,0.62,0.62,0,0,1-.12.22,0.27,0.27,0,0,1-.21.09,0.24,0.24,0,0,1-.19-0.09,0.74,0.74,0,0,1-.12-0.2,1,1,0,0,1-.06-0.23A1.5,1.5,0,0,1,311.17,337.57Z" transform="translate(-270.83 -329.84)" fill="#fff"/><path d="M318.36,335.9a2.19,2.19,0,0,1,.28-1.12,2.61,2.61,0,0,1,.74-0.81,3.22,3.22,0,0,1,1-.49,4.24,4.24,0,0,1,1.14-.16,1.45,1.45,0,0,1,.57.11,2.12,2.12,0,0,1,.5.3,2.43,2.43,0,0,1,.43.45,3.48,3.48,0,0,1,.32.52,2.72,2.72,0,0,1,.21.54,2.15,2.15,0,0,1,.07.53,2.32,2.32,0,0,1-.87,1.86,2.89,2.89,0,0,1-.9.49,3.21,3.21,0,0,1-1,.17,2.79,2.79,0,0,1-1-.17,2.41,2.41,0,0,1-.79-0.47,2.09,2.09,0,0,1-.52-0.76A2.59,2.59,0,0,1,318.36,335.9Zm0.57-.09a1.85,1.85,0,0,0,.13.7,1.77,1.77,0,0,0,.38.58,1.82,1.82,0,0,0,.57.39,1.71,1.71,0,0,0,.7.15,1.22,1.22,0,0,0,.49-0.06,2.65,2.65,0,0,0,.57-0.26,3.36,3.36,0,0,0,.55-0.41,2.43,2.43,0,0,0,.44-0.53,1.52,1.52,0,0,0,.22-0.6,1.1,1.1,0,0,0-.11-0.62,1.66,1.66,0,0,0-.53-0.6,4.22,4.22,0,0,0-1.07-.53,3.1,3.1,0,0,0-.8.11,2.59,2.59,0,0,0-.76.33,1.93,1.93,0,0,0-.56.56A1.4,1.4,0,0,0,318.94,335.8Z" transform="translate(-270.83 -329.84)" fill="#fff"/><path d="M328,337.16a3,3,0,0,1-.94.88,1.68,1.68,0,0,1-.9.22,1.52,1.52,0,0,1-.81-0.31,2.69,2.69,0,0,1-.66-0.7,3.91,3.91,0,0,1-.45-1,3.82,3.82,0,0,1-.18-1.08,3.42,3.42,0,0,1,.15-1.07,2.4,2.4,0,0,1,.53-0.93,0.29,0.29,0,0,1,.21.19,1.5,1.5,0,0,1,0,.27,1.72,1.72,0,0,1,0,.38l-0.09.37q0,0.19-.09.39a2,2,0,0,0,0,.41,2.59,2.59,0,0,0,0,.38q0,0.23.1,0.49a3.55,3.55,0,0,0,.17.51,2.33,2.33,0,0,0,.25.46,1.58,1.58,0,0,0,.32.34,0.64,0.64,0,0,0,.4.13,1.2,1.2,0,0,0,.47-0.12,2.79,2.79,0,0,0,.53-0.31,2,2,0,0,0,.42-0.42,0.8,0.8,0,0,0,.17-0.47l0.07-1.52a0.09,0.09,0,0,1,0-.07l0.1-.06,0.11-.05,0.08,0a0.23,0.23,0,0,1,.22.21,3.44,3.44,0,0,1,.09.54q0,0.33.08,0.71a3.19,3.19,0,0,0,.17.71,1.29,1.29,0,0,0,.37.54,1,1,0,0,0,.68.21,1.31,1.31,0,0,0,.69-0.18,1,1,0,0,0,.38-0.45,1.55,1.55,0,0,0,.11-0.63,3,3,0,0,0-.09-0.69,3.8,3.8,0,0,0-.23-0.66,3.05,3.05,0,0,0-.32-0.55,0.19,0.19,0,0,1,0-.13,0.13,0.13,0,0,1,.06-0.06l0.1,0h0.09a0.84,0.84,0,0,1,.4.31,2.79,2.79,0,0,1,.38.63,3.7,3.7,0,0,1,.25.81,3,3,0,0,1,0,.88,2,2,0,0,1-.25.81,1.57,1.57,0,0,1-.64.61l-0.84,0a3.69,3.69,0,0,1-.54,0,1,1,0,0,1-.35-0.1,1.17,1.17,0,0,1-.25-0.18l-0.25-.26Q328.27,337.37,328,337.16Z" transform="translate(-270.83 -329.84)" fill="#fff"/></svg>